<svg xmlns="http://www.w3.org/2000/svg" width="960" height="540" viewBox="0 0 960 540"><rect width="100%" height="100%" fill="#fbfaf7"/><text x="84" y="28" font-size="24" font-family="Georgia, serif" fill="#1d1b18">Monte Carlo Fairness Gap Distribution</text><text x="84" y="48" font-size="13" font-family="Helvetica, Arial, sans-serif" fill="#5d554a">Late minus early NAV per deposited dollar across Monte Carlo scenarios.</text><line x1="84" y1="460" x2="928" y2="460" stroke="#3d3a35" stroke-width="1.5"/><line x1="84" y1="56" x2="84" y2="460" stroke="#3d3a35" stroke-width="1.5"/><rect x="84.00" y="428.92" width="73.09" height="31.08" fill="#cb6d51" opacity="0.88"/><rect x="161.09" y="444.46" width="73.09" height="15.54" fill="#cb6d51" opacity="0.88"/><rect x="238.18" y="444.46" width="73.09" height="15.54" fill="#cb6d51" opacity="0.88"/><rect x="315.27" y="335.69" width="73.09" height="124.31" fill="#cb6d51" opacity="0.88"/><rect x="392.36" y="289.08" width="73.09" height="170.92" fill="#cb6d51" opacity="0.88"/><rect x="469.45" y="56.00" width="73.09" height="404.00" fill="#cb6d51" opacity="0.88"/><rect x="546.55" y="382.31" width="73.09" height="77.69" fill="#cb6d51" opacity="0.88"/><rect x="623.64" y="397.85" width="73.09" height="62.15" fill="#cb6d51" opacity="0.88"/><rect x="700.73" y="444.46" width="73.09" height="15.54" fill="#cb6d51" opacity="0.88"/><rect x="777.82" y="397.85" width="73.09" height="62.15" fill="#cb6d51" opacity="0.88"/><rect x="854.91" y="444.46" width="73.09" height="15.54" fill="#cb6d51" opacity="0.88"/><line x1="84.00" y1="460" x2="84.00" y2="466" stroke="#3d3a35" stroke-width="1"/><text x="84.00" y="482" text-anchor="middle" font-size="12" font-family="Helvetica, Arial, sans-serif" fill="#3d3a35">-0.064</text><line x1="514.60" y1="460" x2="514.60" y2="466" stroke="#3d3a35" stroke-width="1"/><text x="514.60" y="482" text-anchor="middle" font-size="12" font-family="Helvetica, Arial, sans-serif" fill="#3d3a35">0.000</text><line x1="928.00" y1="460" x2="928.00" y2="466" stroke="#3d3a35" stroke-width="1"/><text x="928.00" y="482" text-anchor="middle" font-size="12" font-family="Helvetica, Arial, sans-serif" fill="#3d3a35">0.061</text><line x1="78" y1="460.00" x2="84" y2="460.00" stroke="#3d3a35" stroke-width="1"/><text x="74" y="464.00" text-anchor="end" font-size="12" font-family="Helvetica, Arial, sans-serif" fill="#3d3a35">0</text><line x1="78" y1="359.00" x2="84" y2="359.00" stroke="#3d3a35" stroke-width="1"/><text x="74" y="363.00" text-anchor="end" font-size="12" font-family="Helvetica, Arial, sans-serif" fill="#3d3a35">13</text><line x1="78" y1="258.00" x2="84" y2="258.00" stroke="#3d3a35" stroke-width="1"/><text x="74" y="262.00" text-anchor="end" font-size="12" font-family="Helvetica, Arial, sans-serif" fill="#3d3a35">26</text><line x1="78" y1="157.00" x2="84" y2="157.00" stroke="#3d3a35" stroke-width="1"/><text x="74" y="161.00" text-anchor="end" font-size="12" font-family="Helvetica, Arial, sans-serif" fill="#3d3a35">39</text><line x1="78" y1="56.00" x2="84" y2="56.00" stroke="#3d3a35" stroke-width="1"/><text x="74" y="60.00" text-anchor="end" font-size="12" font-family="Helvetica, Arial, sans-serif" fill="#3d3a35">52</text><text x="506.00" y="516" text-anchor="middle" font-size="13" font-family="Helvetica, Arial, sans-serif" fill="#3d3a35">Fairness gap (late minus early NAV / deposit)</text><text x="22" y="258.00" transform="rotate(-90 22,258.00)" text-anchor="middle" font-size="13" font-family="Helvetica, Arial, sans-serif" fill="#3d3a35">Scenario count</text></svg>