<svg xmlns="http://www.w3.org/2000/svg" width="960" height="540" viewBox="0 0 960 540"><rect width="100%" height="100%" fill="#fbfaf7"/><text x="84" y="28" font-size="24" font-family="Georgia, serif" fill="#1d1b18">Monte Carlo Fairness Gap Distribution</text><text x="84" y="48" font-size="13" font-family="Helvetica, Arial, sans-serif" fill="#5d554a">Late minus early NAV per deposited dollar across Monte Carlo scenarios.</text><line x1="84" y1="460" x2="928" y2="460" stroke="#3d3a35" stroke-width="1.5"/><line x1="84" y1="56" x2="84" y2="460" stroke="#3d3a35" stroke-width="1.5"/><rect x="84.00" y="426.33" width="137.33" height="33.67" fill="#cb6d51" opacity="0.88"/><rect x="225.33" y="308.50" width="137.33" height="151.50" fill="#cb6d51" opacity="0.88"/><rect x="366.67" y="56.00" width="137.33" height="404.00" fill="#cb6d51" opacity="0.88"/><rect x="508.00" y="308.50" width="137.33" height="151.50" fill="#cb6d51" opacity="0.88"/><rect x="649.33" y="460.00" width="137.33" height="0.00" fill="#cb6d51" opacity="0.88"/><rect x="790.67" y="392.67" width="137.33" height="67.33" fill="#cb6d51" opacity="0.88"/><line x1="84.00" y1="460" x2="84.00" y2="466" stroke="#3d3a35" stroke-width="1"/><text x="84.00" y="482" text-anchor="middle" font-size="12" font-family="Helvetica, Arial, sans-serif" fill="#3d3a35">-0.049</text><line x1="441.48" y1="460" x2="441.48" y2="466" stroke="#3d3a35" stroke-width="1"/><text x="441.48" y="482" text-anchor="middle" font-size="12" font-family="Helvetica, Arial, sans-serif" fill="#3d3a35">0.000</text><line x1="928.00" y1="460" x2="928.00" y2="466" stroke="#3d3a35" stroke-width="1"/><text x="928.00" y="482" text-anchor="middle" font-size="12" font-family="Helvetica, Arial, sans-serif" fill="#3d3a35">0.067</text><line x1="78" y1="460.00" x2="84" y2="460.00" stroke="#3d3a35" stroke-width="1"/><text x="74" y="464.00" text-anchor="end" font-size="12" font-family="Helvetica, Arial, sans-serif" fill="#3d3a35">0</text><line x1="78" y1="359.00" x2="84" y2="359.00" stroke="#3d3a35" stroke-width="1"/><text x="74" y="363.00" text-anchor="end" font-size="12" font-family="Helvetica, Arial, sans-serif" fill="#3d3a35">6</text><line x1="78" y1="258.00" x2="84" y2="258.00" stroke="#3d3a35" stroke-width="1"/><text x="74" y="262.00" text-anchor="end" font-size="12" font-family="Helvetica, Arial, sans-serif" fill="#3d3a35">12</text><line x1="78" y1="157.00" x2="84" y2="157.00" stroke="#3d3a35" stroke-width="1"/><text x="74" y="161.00" text-anchor="end" font-size="12" font-family="Helvetica, Arial, sans-serif" fill="#3d3a35">18</text><line x1="78" y1="56.00" x2="84" y2="56.00" stroke="#3d3a35" stroke-width="1"/><text x="74" y="60.00" text-anchor="end" font-size="12" font-family="Helvetica, Arial, sans-serif" fill="#3d3a35">24</text><text x="506.00" y="516" text-anchor="middle" font-size="13" font-family="Helvetica, Arial, sans-serif" fill="#3d3a35">Fairness gap (late minus early NAV / deposit)</text><text x="22" y="258.00" transform="rotate(-90 22,258.00)" text-anchor="middle" font-size="13" font-family="Helvetica, Arial, sans-serif" fill="#3d3a35">Scenario count</text></svg>