<svg xmlns="http://www.w3.org/2000/svg" width="960" height="540" viewBox="0 0 960 540"><rect width="100%" height="100%" fill="#fbfaf7"/><text x="84" y="28" font-size="24" font-family="Georgia, serif" fill="#1d1b18">Largest Absolute Fairness Gaps</text><text x="84" y="48" font-size="13" font-family="Helvetica, Arial, sans-serif" fill="#5d554a">Top tail scenarios by absolute late-minus-early NAV / deposit gap.</text><line x1="84" y1="258.00" x2="928" y2="258.00" stroke="#3d3a35" stroke-width="1.5"/><line x1="84" y1="56" x2="84" y2="460" stroke="#3d3a35" stroke-width="1.5"/><rect x="84.00" y="258.00" width="75.40" height="202.00" fill="#c9714a" opacity="0.88"/><text x="121.70" y="478" text-anchor="end" transform="rotate(-35 121.70,478)" font-size="11" font-family="Helvetica, Arial, sans-serif" fill="#3d3a35">paper_quick_mc_0040</text><text x="121.70" y="474.00" text-anchor="middle" font-size="10" font-family="Helvetica, Arial, sans-serif" fill="#3d3a35">-0.064</text><rect x="169.40" y="64.07" width="75.40" height="193.93" fill="#4e8f7d" opacity="0.88"/><text x="207.10" y="478" text-anchor="end" transform="rotate(-35 207.10,478)" font-size="11" font-family="Helvetica, Arial, sans-serif" fill="#3d3a35">paper_quick_mc_0049</text><text x="207.10" y="58.07" text-anchor="middle" font-size="10" font-family="Helvetica, Arial, sans-serif" fill="#3d3a35">0.061</text><rect x="254.80" y="258.00" width="75.40" height="181.25" fill="#c9714a" opacity="0.88"/><text x="292.50" y="478" text-anchor="end" transform="rotate(-35 292.50,478)" font-size="11" font-family="Helvetica, Arial, sans-serif" fill="#3d3a35">paper_quick_mc_0025</text><text x="292.50" y="453.25" text-anchor="middle" font-size="10" font-family="Helvetica, Arial, sans-serif" fill="#3d3a35">-0.057</text><rect x="340.20" y="115.66" width="75.40" height="142.34" fill="#4e8f7d" opacity="0.88"/><text x="377.90" y="478" text-anchor="end" transform="rotate(-35 377.90,478)" font-size="11" font-family="Helvetica, Arial, sans-serif" fill="#3d3a35">paper_quick_mc_0029</text><text x="377.90" y="109.66" text-anchor="middle" font-size="10" font-family="Helvetica, Arial, sans-serif" fill="#3d3a35">0.045</text><rect x="425.60" y="258.00" width="75.40" height="140.97" fill="#c9714a" opacity="0.88"/><text x="463.30" y="478" text-anchor="end" transform="rotate(-35 463.30,478)" font-size="11" font-family="Helvetica, Arial, sans-serif" fill="#3d3a35">paper_quick_mc_0016</text><text x="463.30" y="412.97" text-anchor="middle" font-size="10" font-family="Helvetica, Arial, sans-serif" fill="#3d3a35">-0.044</text><rect x="511.00" y="132.72" width="75.40" height="125.28" fill="#4e8f7d" opacity="0.88"/><text x="548.70" y="478" text-anchor="end" transform="rotate(-35 548.70,478)" font-size="11" font-family="Helvetica, Arial, sans-serif" fill="#3d3a35">paper_quick_mc_0011</text><text x="548.70" y="126.72" text-anchor="middle" font-size="10" font-family="Helvetica, Arial, sans-serif" fill="#3d3a35">0.040</text><rect x="596.40" y="258.00" width="75.40" height="124.24" fill="#c9714a" opacity="0.88"/><text x="634.10" y="478" text-anchor="end" transform="rotate(-35 634.10,478)" font-size="11" font-family="Helvetica, Arial, sans-serif" fill="#3d3a35">paper_quick_mc_0034</text><text x="634.10" y="396.24" text-anchor="middle" font-size="10" font-family="Helvetica, Arial, sans-serif" fill="#3d3a35">-0.039</text><rect x="681.80" y="133.87" width="75.40" height="124.13" fill="#4e8f7d" opacity="0.88"/><text x="719.50" y="478" text-anchor="end" transform="rotate(-35 719.50,478)" font-size="11" font-family="Helvetica, Arial, sans-serif" fill="#3d3a35">paper_quick_mc_0050</text><text x="719.50" y="127.87" text-anchor="middle" font-size="10" font-family="Helvetica, Arial, sans-serif" fill="#3d3a35">0.039</text><rect x="767.20" y="135.62" width="75.40" height="122.38" fill="#4e8f7d" opacity="0.88"/><text x="804.90" y="478" text-anchor="end" transform="rotate(-35 804.90,478)" font-size="11" font-family="Helvetica, Arial, sans-serif" fill="#3d3a35">paper_quick_mc_0039</text><text x="804.90" y="129.62" text-anchor="middle" font-size="10" font-family="Helvetica, Arial, sans-serif" fill="#3d3a35">0.039</text><rect x="852.60" y="258.00" width="75.40" height="93.40" fill="#c9714a" opacity="0.88"/><text x="890.30" y="478" text-anchor="end" transform="rotate(-35 890.30,478)" font-size="11" font-family="Helvetica, Arial, sans-serif" fill="#3d3a35">paper_quick_mc_0001</text><text x="890.30" y="365.40" text-anchor="middle" font-size="10" font-family="Helvetica, Arial, sans-serif" fill="#3d3a35">-0.029</text><line x1="78" y1="460.00" x2="84" y2="460.00" stroke="#3d3a35" stroke-width="1"/><text x="74" y="464.00" text-anchor="end" font-size="12" font-family="Helvetica, Arial, sans-serif" fill="#3d3a35">-0.064</text><line x1="78" y1="258.00" x2="84" y2="258.00" stroke="#3d3a35" stroke-width="1"/><text x="74" y="262.00" text-anchor="end" font-size="12" font-family="Helvetica, Arial, sans-serif" fill="#3d3a35">0.000</text><line x1="78" y1="56.00" x2="84" y2="56.00" stroke="#3d3a35" stroke-width="1"/><text x="74" y="60.00" text-anchor="end" font-size="12" font-family="Helvetica, Arial, sans-serif" fill="#3d3a35">0.064</text><text x="506.00" y="520" text-anchor="middle" font-size="13" font-family="Helvetica, Arial, sans-serif" fill="#3d3a35">Scenario</text><text x="22" y="258.00" transform="rotate(-90 22,258.00)" text-anchor="middle" font-size="13" font-family="Helvetica, Arial, sans-serif" fill="#3d3a35">Fairness gap (NAV / deposit)</text></svg>