<svg xmlns="http://www.w3.org/2000/svg" width="960" height="540" viewBox="0 0 960 540"><rect width="100%" height="100%" fill="#fbfaf7"/><text x="84" y="28" font-size="24" font-family="Georgia, serif" fill="#1d1b18">Monte Carlo Fairness Gap Distribution</text><text x="84" y="48" font-size="13" font-family="Helvetica, Arial, sans-serif" fill="#5d554a">Late minus early NAV per deposited dollar across Monte Carlo scenarios.</text><line x1="84" y1="460" x2="928" y2="460" stroke="#3d3a35" stroke-width="1.5"/><line x1="84" y1="56" x2="84" y2="460" stroke="#3d3a35" stroke-width="1.5"/><rect x="84.00" y="386.55" width="137.33" height="73.45" fill="#cb6d51" opacity="0.88"/><rect x="225.33" y="56.00" width="137.33" height="404.00" fill="#cb6d51" opacity="0.88"/><rect x="366.67" y="460.00" width="137.33" height="0.00" fill="#cb6d51" opacity="0.88"/><rect x="508.00" y="460.00" width="137.33" height="0.00" fill="#cb6d51" opacity="0.88"/><rect x="649.33" y="460.00" width="137.33" height="0.00" fill="#cb6d51" opacity="0.88"/><rect x="790.67" y="349.82" width="137.33" height="110.18" fill="#cb6d51" opacity="0.88"/><line x1="84.00" y1="460" x2="84.00" y2="466" stroke="#3d3a35" stroke-width="1"/><text x="84.00" y="482" text-anchor="middle" font-size="12" font-family="Helvetica, Arial, sans-serif" fill="#3d3a35">-0.297</text><line x1="291.85" y1="460" x2="291.85" y2="466" stroke="#3d3a35" stroke-width="1"/><text x="291.85" y="482" text-anchor="middle" font-size="12" font-family="Helvetica, Arial, sans-serif" fill="#3d3a35">0.000</text><line x1="928.00" y1="460" x2="928.00" y2="466" stroke="#3d3a35" stroke-width="1"/><text x="928.00" y="482" text-anchor="middle" font-size="12" font-family="Helvetica, Arial, sans-serif" fill="#3d3a35">0.909</text><line x1="78" y1="460.00" x2="84" y2="460.00" stroke="#3d3a35" stroke-width="1"/><text x="74" y="464.00" text-anchor="end" font-size="12" font-family="Helvetica, Arial, sans-serif" fill="#3d3a35">0</text><line x1="78" y1="368.18" x2="84" y2="368.18" stroke="#3d3a35" stroke-width="1"/><text x="74" y="372.18" text-anchor="end" font-size="12" font-family="Helvetica, Arial, sans-serif" fill="#3d3a35">5</text><line x1="78" y1="276.36" x2="84" y2="276.36" stroke="#3d3a35" stroke-width="1"/><text x="74" y="280.36" text-anchor="end" font-size="12" font-family="Helvetica, Arial, sans-serif" fill="#3d3a35">10</text><line x1="78" y1="184.55" x2="84" y2="184.55" stroke="#3d3a35" stroke-width="1"/><text x="74" y="188.55" text-anchor="end" font-size="12" font-family="Helvetica, Arial, sans-serif" fill="#3d3a35">15</text><line x1="78" y1="92.73" x2="84" y2="92.73" stroke="#3d3a35" stroke-width="1"/><text x="74" y="96.73" text-anchor="end" font-size="12" font-family="Helvetica, Arial, sans-serif" fill="#3d3a35">20</text><text x="506.00" y="516" text-anchor="middle" font-size="13" font-family="Helvetica, Arial, sans-serif" fill="#3d3a35">Fairness gap (late minus early NAV / deposit)</text><text x="22" y="258.00" transform="rotate(-90 22,258.00)" text-anchor="middle" font-size="13" font-family="Helvetica, Arial, sans-serif" fill="#3d3a35">Scenario count</text></svg>