<svg xmlns="http://www.w3.org/2000/svg" width="960" height="540" viewBox="0 0 960 540"><rect width="100%" height="100%" fill="#fbfaf7"/><text x="84" y="28" font-size="24" font-family="Georgia, serif" fill="#1d1b18">Largest Absolute Fairness Gaps</text><text x="84" y="48" font-size="13" font-family="Helvetica, Arial, sans-serif" fill="#5d554a">Top tail scenarios by absolute late-minus-early NAV / deposit gap.</text><line x1="84" y1="258.00" x2="928" y2="258.00" stroke="#3d3a35" stroke-width="1.5"/><line x1="84" y1="56" x2="84" y2="460" stroke="#3d3a35" stroke-width="1.5"/><rect x="84.00" y="56.00" width="75.40" height="202.00" fill="#4e8f7d" opacity="0.88"/><text x="121.70" y="478" text-anchor="end" transform="rotate(-35 121.70,478)" font-size="11" font-family="Helvetica, Arial, sans-serif" fill="#3d3a35">adversarial_default_0040</text><text x="121.70" y="50.00" text-anchor="middle" font-size="10" font-family="Helvetica, Arial, sans-serif" fill="#3d3a35">0.101</text><rect x="169.40" y="57.13" width="75.40" height="200.87" fill="#4e8f7d" opacity="0.88"/><text x="207.10" y="478" text-anchor="end" transform="rotate(-35 207.10,478)" font-size="11" font-family="Helvetica, Arial, sans-serif" fill="#3d3a35">adversarial_default_0088</text><text x="207.10" y="51.13" text-anchor="middle" font-size="10" font-family="Helvetica, Arial, sans-serif" fill="#3d3a35">0.101</text><rect x="254.80" y="61.48" width="75.40" height="196.52" fill="#4e8f7d" opacity="0.88"/><text x="292.50" y="478" text-anchor="end" transform="rotate(-35 292.50,478)" font-size="11" font-family="Helvetica, Arial, sans-serif" fill="#3d3a35">adversarial_default_0024</text><text x="292.50" y="55.48" text-anchor="middle" font-size="10" font-family="Helvetica, Arial, sans-serif" fill="#3d3a35">0.099</text><rect x="340.20" y="61.48" width="75.40" height="196.52" fill="#4e8f7d" opacity="0.88"/><text x="377.90" y="478" text-anchor="end" transform="rotate(-35 377.90,478)" font-size="11" font-family="Helvetica, Arial, sans-serif" fill="#3d3a35">adversarial_default_0072</text><text x="377.90" y="55.48" text-anchor="middle" font-size="10" font-family="Helvetica, Arial, sans-serif" fill="#3d3a35">0.099</text><rect x="425.60" y="69.69" width="75.40" height="188.31" fill="#4e8f7d" opacity="0.88"/><text x="463.30" y="478" text-anchor="end" transform="rotate(-35 463.30,478)" font-size="11" font-family="Helvetica, Arial, sans-serif" fill="#3d3a35">adversarial_default_0086</text><text x="463.30" y="63.69" text-anchor="middle" font-size="10" font-family="Helvetica, Arial, sans-serif" fill="#3d3a35">0.095</text><rect x="511.00" y="71.70" width="75.40" height="186.30" fill="#4e8f7d" opacity="0.88"/><text x="548.70" y="478" text-anchor="end" transform="rotate(-35 548.70,478)" font-size="11" font-family="Helvetica, Arial, sans-serif" fill="#3d3a35">adversarial_default_0038</text><text x="548.70" y="65.70" text-anchor="middle" font-size="10" font-family="Helvetica, Arial, sans-serif" fill="#3d3a35">0.094</text><rect x="596.40" y="81.04" width="75.40" height="176.96" fill="#4e8f7d" opacity="0.88"/><text x="634.10" y="478" text-anchor="end" transform="rotate(-35 634.10,478)" font-size="11" font-family="Helvetica, Arial, sans-serif" fill="#3d3a35">adversarial_default_0046</text><text x="634.10" y="75.04" text-anchor="middle" font-size="10" font-family="Helvetica, Arial, sans-serif" fill="#3d3a35">0.089</text><rect x="681.80" y="82.05" width="75.40" height="175.95" fill="#4e8f7d" opacity="0.88"/><text x="719.50" y="478" text-anchor="end" transform="rotate(-35 719.50,478)" font-size="11" font-family="Helvetica, Arial, sans-serif" fill="#3d3a35">adversarial_default_0094</text><text x="719.50" y="76.05" text-anchor="middle" font-size="10" font-family="Helvetica, Arial, sans-serif" fill="#3d3a35">0.088</text><rect x="767.20" y="83.86" width="75.40" height="174.14" fill="#4e8f7d" opacity="0.88"/><text x="804.90" y="478" text-anchor="end" transform="rotate(-35 804.90,478)" font-size="11" font-family="Helvetica, Arial, sans-serif" fill="#3d3a35">adversarial_default_0136</text><text x="804.90" y="77.86" text-anchor="middle" font-size="10" font-family="Helvetica, Arial, sans-serif" fill="#3d3a35">0.087</text><rect x="852.60" y="84.29" width="75.40" height="173.71" fill="#4e8f7d" opacity="0.88"/><text x="890.30" y="478" text-anchor="end" transform="rotate(-35 890.30,478)" font-size="11" font-family="Helvetica, Arial, sans-serif" fill="#3d3a35">adversarial_default_0184</text><text x="890.30" y="78.29" text-anchor="middle" font-size="10" font-family="Helvetica, Arial, sans-serif" fill="#3d3a35">0.087</text><line x1="78" y1="460.00" x2="84" y2="460.00" stroke="#3d3a35" stroke-width="1"/><text x="74" y="464.00" text-anchor="end" font-size="12" font-family="Helvetica, Arial, sans-serif" fill="#3d3a35">-0.101</text><line x1="78" y1="258.00" x2="84" y2="258.00" stroke="#3d3a35" stroke-width="1"/><text x="74" y="262.00" text-anchor="end" font-size="12" font-family="Helvetica, Arial, sans-serif" fill="#3d3a35">0.000</text><line x1="78" y1="56.00" x2="84" y2="56.00" stroke="#3d3a35" stroke-width="1"/><text x="74" y="60.00" text-anchor="end" font-size="12" font-family="Helvetica, Arial, sans-serif" fill="#3d3a35">0.101</text><text x="506.00" y="520" text-anchor="middle" font-size="13" font-family="Helvetica, Arial, sans-serif" fill="#3d3a35">Scenario</text><text x="22" y="258.00" transform="rotate(-90 22,258.00)" text-anchor="middle" font-size="13" font-family="Helvetica, Arial, sans-serif" fill="#3d3a35">Fairness gap (NAV / deposit)</text></svg>