<svg xmlns="http://www.w3.org/2000/svg" viewBox="0 0 72 72" width="144" height="144">
  <rect width="72" height="72" rx="0" fill="#f0f2f8"/>

  <path d="M10,52 Q50,50 52,10" fill="none" stroke="#a0aab9" stroke-width="1" stroke-linecap="round" opacity="0.35"/>

  <circle cx="14.1" cy="53.2" r="2.2" fill="#a0aab9" opacity="0.45"/>
  <circle cx="17.3" cy="49.2" r="2.2" fill="#a0aab9" opacity="0.5"/>
  <circle cx="21.3" cy="51.0" r="2.2" fill="#365f9c"/>
  <circle cx="23.6" cy="46.8" r="2.2" fill="#a0aab9" opacity="0.4"/>
  <circle cx="27.9" cy="49.4" r="2.2" fill="#365f9c"/>
  <circle cx="30.5" cy="47.1" r="2.2" fill="#365f9c"/>
  <circle cx="35.1" cy="49.0" r="2.2" fill="#a0aab9" opacity="0.45"/>
  <circle cx="35.6" cy="43.8" r="2.2" fill="#365f9c"/>
  <circle cx="38.6" cy="42.8" r="2.2" fill="#365f9c"/>
  <circle cx="43.1" cy="45.0" r="2.2" fill="#c26a2d"/>
  <circle cx="39.5" cy="37.9" r="2.2" fill="#a0aab9" opacity="0.5"/>
  <circle cx="45.6" cy="39.2" r="2.2" fill="#a0aab9" opacity="0.4"/>
  <circle cx="44.4" cy="34.5" r="2.2" fill="#365f9c"/>
  <circle cx="41.2" cy="30.6" r="2.2" fill="#c26a2d"/>
  <circle cx="49.9" cy="31.8" r="2.2" fill="#a0aab9" opacity="0.4"/>
  <circle cx="46.8" cy="26.9" r="2.2" fill="#a0aab9" opacity="0.45"/>
  <circle cx="50.2" cy="24.6" r="2.2" fill="#365f9c"/>
  <circle cx="53.3" cy="23.3" r="2.2" fill="#a0aab9" opacity="0.5"/>
  <circle cx="49.1" cy="19.4" r="2.2" fill="#a0aab9" opacity="0.45"/>
  <circle cx="51.0" cy="16.1" r="2.2" fill="#365f9c"/>
  <circle cx="56.2" cy="14.4" r="2.2" fill="#c26a2d" opacity="0.7"/>
</svg>
