<svg xmlns="http://www.w3.org/2000/svg" width="960" height="640" viewBox="0 0 960 640"><rect width="100%" height="100%" fill="#fbfaf7"/><text x="84" y="28" font-size="20" font-family="Georgia, serif" fill="#1d1b18">Representative Low-Tail Failure Trace</text><line x1="84" y1="280.00" x2="928" y2="280.00" stroke="#ddd7cf" stroke-width="1"/><text x="74" y="284.00" text-anchor="end" font-size="11" font-family="Helvetica, Arial, sans-serif" fill="#3d3a35">0.0</text><line x1="84" y1="238.00" x2="928" y2="238.00" stroke="#ddd7cf" stroke-width="1"/><text x="74" y="242.00" text-anchor="end" font-size="11" font-family="Helvetica, Arial, sans-serif" fill="#3d3a35">180.5</text><line x1="84" y1="196.00" x2="928" y2="196.00" stroke="#ddd7cf" stroke-width="1"/><text x="74" y="200.00" text-anchor="end" font-size="11" font-family="Helvetica, Arial, sans-serif" fill="#3d3a35">361.1</text><line x1="84" y1="154.00" x2="928" y2="154.00" stroke="#ddd7cf" stroke-width="1"/><text x="74" y="158.00" text-anchor="end" font-size="11" font-family="Helvetica, Arial, sans-serif" fill="#3d3a35">541.6</text><line x1="84" y1="112.00" x2="928" y2="112.00" stroke="#ddd7cf" stroke-width="1"/><text x="74" y="116.00" text-anchor="end" font-size="11" font-family="Helvetica, Arial, sans-serif" fill="#3d3a35">722.1</text><line x1="84" y1="112" x2="84" y2="280" stroke="#3d3a35" stroke-width="1.5"/><line x1="84" y1="280" x2="928" y2="280" stroke="#3d3a35" stroke-width="1.5"/><line x1="84" y1="280.00" x2="928" y2="280.00" stroke="#8a8177" stroke-width="1.4"/><text x="24" y="196.00" transform="rotate(-90 24,196.00)" text-anchor="middle" font-size="12" font-family="Helvetica, Arial, sans-serif" fill="#3d3a35">Reserve margin</text><line x1="84" y1="504.00" x2="928" y2="504.00" stroke="#ddd7cf" stroke-width="1"/><text x="74" y="508.00" text-anchor="end" font-size="11" font-family="Helvetica, Arial, sans-serif" fill="#3d3a35">-264.5</text><line x1="84" y1="462.00" x2="928" y2="462.00" stroke="#ddd7cf" stroke-width="1"/><text x="74" y="466.00" text-anchor="end" font-size="11" font-family="Helvetica, Arial, sans-serif" fill="#3d3a35">-70.6</text><line x1="84" y1="420.00" x2="928" y2="420.00" stroke="#ddd7cf" stroke-width="1"/><text x="74" y="424.00" text-anchor="end" font-size="11" font-family="Helvetica, Arial, sans-serif" fill="#3d3a35">123.2</text><line x1="84" y1="378.00" x2="928" y2="378.00" stroke="#ddd7cf" stroke-width="1"/><text x="74" y="382.00" text-anchor="end" font-size="11" font-family="Helvetica, Arial, sans-serif" fill="#3d3a35">317.1</text><line x1="84" y1="336.00" x2="928" y2="336.00" stroke="#ddd7cf" stroke-width="1"/><text x="74" y="340.00" text-anchor="end" font-size="11" font-family="Helvetica, Arial, sans-serif" fill="#3d3a35">510.9</text><line x1="84" y1="336" x2="84" y2="504" stroke="#3d3a35" stroke-width="1.5"/><line x1="84" y1="504" x2="928" y2="504" stroke="#3d3a35" stroke-width="1.5"/><line x1="84" y1="446.69" x2="928" y2="446.69" stroke="#8a8177" stroke-width="1.4"/><text x="24" y="420.00" transform="rotate(-90 24,420.00)" text-anchor="middle" font-size="12" font-family="Helvetica, Arial, sans-serif" fill="#3d3a35">Min cohort margin</text><polyline fill="none" stroke="#4A6FA5" stroke-width="3" points="84.00,178.60 204.57,174.85 325.14,149.60 445.71,124.45 566.29,240.77 686.86,240.77 807.43,254.85 928.00,280.00" opacity="0.96"/><polyline fill="none" stroke="#7C93BD" stroke-width="3" stroke-dasharray="9 6" points="84.00,178.60 204.57,174.85 325.14,149.59 445.71,124.44 566.29,240.76 686.86,240.76 807.43,254.85 928.00,280.00" opacity="0.96"/><polyline fill="none" stroke="#C9714A" stroke-width="3" points="84.00,352.26 204.57,402.93 325.14,433.58 445.71,433.58 566.29,433.58 686.86,487.74 807.43,446.69 928.00,446.69" opacity="0.96"/><polyline fill="none" stroke="#DDA07F" stroke-width="3" stroke-dasharray="9 6" points="84.00,352.26 204.57,402.93 325.14,433.58 445.71,433.58 566.29,433.58 686.86,487.74 807.43,446.69 928.00,446.69" opacity="0.96"/><line x1="84.00" y1="112" x2="84.00" y2="504" stroke="#eee6dc" stroke-width="1"/><text x="84.00" y="578" text-anchor="end" transform="rotate(-35 84.00,578)" font-size="11" font-family="Helvetica, Arial, sans-serif" fill="#3d3a35">Bootstrap</text><circle cx="84.00" cy="178.60" r="4.5" fill="#4A6FA5" opacity="0.95"/><circle cx="84.00" cy="178.60" r="4.5" fill="#7C93BD" opacity="0.95"/><circle cx="84.00" cy="352.26" r="4.5" fill="#C9714A" opacity="0.95"/><circle cx="84.00" cy="352.26" r="4.5" fill="#DDA07F" opacity="0.95"/><line x1="204.57" y1="112" x2="204.57" y2="504" stroke="#eee6dc" stroke-width="1"/><text x="204.57" y="578" text-anchor="end" transform="rotate(-35 204.57,578)" font-size="11" font-family="Helvetica, Arial, sans-serif" fill="#3d3a35">Buy</text><circle cx="204.57" cy="174.85" r="4.5" fill="#4A6FA5" opacity="0.95"/><circle cx="204.57" cy="174.85" r="4.5" fill="#7C93BD" opacity="0.95"/><circle cx="204.57" cy="402.93" r="4.5" fill="#C9714A" opacity="0.95"/><circle cx="204.57" cy="402.93" r="4.5" fill="#DDA07F" opacity="0.95"/><line x1="325.14" y1="112" x2="325.14" y2="504" stroke="#eee6dc" stroke-width="1"/><text x="325.14" y="578" text-anchor="end" transform="rotate(-35 325.14,578)" font-size="11" font-family="Helvetica, Arial, sans-serif" fill="#3d3a35">Buy</text><circle cx="325.14" cy="149.60" r="4.5" fill="#4A6FA5" opacity="0.95"/><circle cx="325.14" cy="149.59" r="4.5" fill="#7C93BD" opacity="0.95"/><circle cx="325.14" cy="433.58" r="4.5" fill="#C9714A" opacity="0.95"/><circle cx="325.14" cy="433.58" r="4.5" fill="#DDA07F" opacity="0.95"/><line x1="445.71" y1="112" x2="445.71" y2="504" stroke="#eee6dc" stroke-width="1"/><text x="445.71" y="578" text-anchor="end" transform="rotate(-35 445.71,578)" font-size="11" font-family="Helvetica, Arial, sans-serif" fill="#3d3a35">LP Enter</text><circle cx="445.71" cy="124.45" r="4.5" fill="#4A6FA5" opacity="0.95"/><circle cx="445.71" cy="124.44" r="4.5" fill="#7C93BD" opacity="0.95"/><circle cx="445.71" cy="433.58" r="4.5" fill="#C9714A" opacity="0.95"/><circle cx="445.71" cy="433.58" r="4.5" fill="#DDA07F" opacity="0.95"/><line x1="566.29" y1="112" x2="566.29" y2="504" stroke="#eee6dc" stroke-width="1"/><text x="566.29" y="578" text-anchor="end" transform="rotate(-35 566.29,578)" font-size="11" font-family="Helvetica, Arial, sans-serif" fill="#3d3a35">Resolve</text><circle cx="566.29" cy="240.77" r="4.5" fill="#4A6FA5" opacity="0.95"/><circle cx="566.29" cy="240.76" r="4.5" fill="#7C93BD" opacity="0.95"/><circle cx="566.29" cy="433.58" r="4.5" fill="#C9714A" opacity="0.95"/><circle cx="566.29" cy="433.58" r="4.5" fill="#DDA07F" opacity="0.95"/><line x1="686.86" y1="112" x2="686.86" y2="504" stroke="#eee6dc" stroke-width="1"/><text x="686.86" y="578" text-anchor="end" transform="rotate(-35 686.86,578)" font-size="11" font-family="Helvetica, Arial, sans-serif" fill="#3d3a35">Claim Win</text><circle cx="686.86" cy="240.77" r="4.5" fill="#4A6FA5" opacity="0.95"/><circle cx="686.86" cy="240.76" r="4.5" fill="#7C93BD" opacity="0.95"/><circle cx="686.86" cy="487.74" r="4.5" fill="#C9714A" opacity="0.95"/><circle cx="686.86" cy="487.74" r="4.5" fill="#DDA07F" opacity="0.95"/><line x1="807.43" y1="112" x2="807.43" y2="504" stroke="#eee6dc" stroke-width="1"/><text x="807.43" y="578" text-anchor="end" transform="rotate(-35 807.43,578)" font-size="11" font-family="Helvetica, Arial, sans-serif" fill="#3d3a35">Claim LP</text><circle cx="807.43" cy="254.85" r="4.5" fill="#4A6FA5" opacity="0.95"/><circle cx="807.43" cy="254.85" r="4.5" fill="#7C93BD" opacity="0.95"/><circle cx="807.43" cy="446.69" r="4.5" fill="#C9714A" opacity="0.95"/><circle cx="807.43" cy="446.69" r="4.5" fill="#DDA07F" opacity="0.95"/><line x1="928.00" y1="112" x2="928.00" y2="504" stroke="#eee6dc" stroke-width="1"/><text x="928.00" y="578" text-anchor="end" transform="rotate(-35 928.00,578)" font-size="11" font-family="Helvetica, Arial, sans-serif" fill="#3d3a35">Claim LP</text><circle cx="928.00" cy="280.00" r="4.5" fill="#4A6FA5" opacity="0.95"/><circle cx="928.00" cy="280.00" r="4.5" fill="#7C93BD" opacity="0.95"/><circle cx="928.00" cy="446.69" r="4.5" fill="#C9714A" opacity="0.95"/><circle cx="928.00" cy="446.69" r="4.5" fill="#DDA07F" opacity="0.95"/><line x1="84" y1="56" x2="104" y2="56" stroke="#4A6FA5" stroke-width="3"/><text x="110" y="60" font-size="10" font-family="Helvetica, Arial, sans-serif" fill="#3d3a35">Reference</text><line x1="84" y1="71" x2="104" y2="71" stroke="#7C93BD" stroke-width="3" stroke-dasharray="9 6"/><text x="110" y="75" font-size="10" font-family="Helvetica, Arial, sans-serif" fill="#3d3a35">Layer C</text><line x1="84" y1="86" x2="104" y2="86" stroke="#C9714A" stroke-width="3"/><text x="110" y="90" font-size="10" font-family="Helvetica, Arial, sans-serif" fill="#3d3a35">Ref. min cohort</text><line x1="84" y1="101" x2="104" y2="101" stroke="#DDA07F" stroke-width="3" stroke-dasharray="9 6"/><text x="110" y="105" font-size="10" font-family="Helvetica, Arial, sans-serif" fill="#3d3a35">Layer C min cohort</text><text x="506.00" y="622" text-anchor="middle" font-size="13" font-family="Helvetica, Arial, sans-serif" fill="#3d3a35">Event sequence</text></svg>