<svg xmlns="http://www.w3.org/2000/svg" width="960" height="540" viewBox="0 0 960 540"><rect width="100%" height="100%" fill="#fbfaf7"/><text x="84" y="28" font-size="20" font-family="Georgia, serif" fill="#1d1b18">Residual Rule Comparison</text><line x1="84" y1="262.00" x2="928" y2="262.00" stroke="#8a8177" stroke-width="1"/><line x1="84" y1="56" x2="84" y2="468" stroke="#3d3a35" stroke-width="1.5"/><rect x="124.00" y="233.37" width="148.96" height="28.63" fill="#C75B5B" opacity="0.90" rx="2"/><text x="198.48" y="486" text-anchor="middle" font-size="10" font-family="Helvetica, Arial, sans-serif" fill="#3d3a35">flat</text><text x="198.48" y="225.37" text-anchor="middle" font-size="9" font-family="Helvetica, Arial, sans-serif" fill="#3d3a35">0.107</text><rect x="335.68" y="262.00" width="148.96" height="177.59" fill="#C9714A" opacity="0.90" rx="2"/><text x="410.16" y="486" text-anchor="middle" font-size="10" font-family="Helvetica, Arial, sans-serif" fill="#3d3a35">linear</text><text x="410.16" y="354.79" text-anchor="middle" font-size="9" font-family="Helvetica, Arial, sans-serif" fill="#3d3a35">-0.666</text><rect x="547.36" y="261.97" width="148.96" height="0.03" fill="#7C93BD" opacity="0.90" rx="2"/><text x="621.84" y="486" text-anchor="middle" font-size="10" font-family="Helvetica, Arial, sans-serif" fill="#3d3a35">affine 0.03250</text><text x="621.84" y="253.97" text-anchor="middle" font-size="9" font-family="Helvetica, Arial, sans-serif" fill="#3d3a35">0.000</text><rect x="759.04" y="262.00" width="148.96" height="1.80" fill="#355B8C" opacity="0.90" rx="2"/><text x="833.52" y="486" text-anchor="middle" font-size="10" font-family="Helvetica, Arial, sans-serif" fill="#3d3a35">affine norm 0.150</text><text x="833.52" y="266.90" text-anchor="middle" font-size="9" font-family="Helvetica, Arial, sans-serif" fill="#3d3a35">-0.007</text><line x1="79" y1="468.00" x2="84" y2="468.00" stroke="#3d3a35" stroke-width="1"/><text x="76" y="472.00" text-anchor="end" font-size="11" font-family="Helvetica, Arial, sans-serif" fill="#3d3a35">-0.773</text><line x1="79" y1="262.00" x2="84" y2="262.00" stroke="#3d3a35" stroke-width="1"/><text x="76" y="266.00" text-anchor="end" font-size="11" font-family="Helvetica, Arial, sans-serif" fill="#3d3a35">0.000</text><line x1="79" y1="56.00" x2="84" y2="56.00" stroke="#3d3a35" stroke-width="1"/><text x="76" y="60.00" text-anchor="end" font-size="11" font-family="Helvetica, Arial, sans-serif" fill="#3d3a35">0.773</text><text x="506.00" y="526" text-anchor="middle" font-size="12" font-family="Helvetica, Arial, sans-serif" fill="#5d554a">Residual rule</text><text x="22" y="262.00" transform="rotate(-90 22,262.00)" text-anchor="middle" font-size="12" font-family="Helvetica, Arial, sans-serif" fill="#5d554a">Mean fairness gap</text></svg>