<svg xmlns="http://www.w3.org/2000/svg" width="960" height="540" viewBox="0 0 960 540"><rect width="100%" height="100%" fill="#fbfaf7"/><text x="84" y="28" font-size="20" font-family="Georgia, serif" fill="#1d1b18">Residual Weight Calibration</text><line x1="84" y1="460.00" x2="928" y2="460.00" stroke="#ddd7cf" stroke-width="1"/><text x="74" y="464.00" text-anchor="end" font-size="12" font-family="Helvetica, Arial, sans-serif" fill="#3d3a35">-0.102</text><line x1="84" y1="379.20" x2="928" y2="379.20" stroke="#ddd7cf" stroke-width="1"/><text x="74" y="383.20" text-anchor="end" font-size="12" font-family="Helvetica, Arial, sans-serif" fill="#3d3a35">-0.071</text><line x1="84" y1="298.40" x2="928" y2="298.40" stroke="#ddd7cf" stroke-width="1"/><text x="74" y="302.40" text-anchor="end" font-size="12" font-family="Helvetica, Arial, sans-serif" fill="#3d3a35">-0.040</text><line x1="84" y1="217.60" x2="928" y2="217.60" stroke="#ddd7cf" stroke-width="1"/><text x="74" y="221.60" text-anchor="end" font-size="12" font-family="Helvetica, Arial, sans-serif" fill="#3d3a35">-0.009</text><line x1="84" y1="136.80" x2="928" y2="136.80" stroke="#ddd7cf" stroke-width="1"/><text x="74" y="140.80" text-anchor="end" font-size="12" font-family="Helvetica, Arial, sans-serif" fill="#3d3a35">0.022</text><line x1="84" y1="56.00" x2="928" y2="56.00" stroke="#ddd7cf" stroke-width="1"/><text x="74" y="60.00" text-anchor="end" font-size="12" font-family="Helvetica, Arial, sans-serif" fill="#3d3a35">0.053</text><line x1="84.00" y1="56" x2="84.00" y2="460" stroke="#eee6dc" stroke-width="1"/><text x="84.00" y="482" text-anchor="middle" font-size="12" font-family="Helvetica, Arial, sans-serif" fill="#3d3a35">0.0182</text><line x1="252.80" y1="56" x2="252.80" y2="460" stroke="#eee6dc" stroke-width="1"/><text x="252.80" y="482" text-anchor="middle" font-size="12" font-family="Helvetica, Arial, sans-serif" fill="#3d3a35">0.0249</text><line x1="421.60" y1="56" x2="421.60" y2="460" stroke="#eee6dc" stroke-width="1"/><text x="421.60" y="482" text-anchor="middle" font-size="12" font-family="Helvetica, Arial, sans-serif" fill="#3d3a35">0.0316</text><line x1="590.40" y1="56" x2="590.40" y2="460" stroke="#eee6dc" stroke-width="1"/><text x="590.40" y="482" text-anchor="middle" font-size="12" font-family="Helvetica, Arial, sans-serif" fill="#3d3a35">0.0384</text><line x1="759.20" y1="56" x2="759.20" y2="460" stroke="#eee6dc" stroke-width="1"/><text x="759.20" y="482" text-anchor="middle" font-size="12" font-family="Helvetica, Arial, sans-serif" fill="#3d3a35">0.0451</text><line x1="928.00" y1="56" x2="928.00" y2="460" stroke="#eee6dc" stroke-width="1"/><text x="928.00" y="482" text-anchor="middle" font-size="12" font-family="Helvetica, Arial, sans-serif" fill="#3d3a35">0.0518</text><line x1="84" y1="195.38" x2="928" y2="195.38" stroke="#8a8177" stroke-width="1.5"/><line x1="84" y1="56" x2="84" y2="460" stroke="#3d3a35" stroke-width="1.5"/><line x1="84" y1="460" x2="928" y2="460" stroke="#3d3a35" stroke-width="1.5"/><polyline fill="none" stroke="#4A6FA5" stroke-width="3" points="129.21,95.10 129.21,148.95 254.81,136.31 254.81,199.91 380.40,175.87 380.40,248.39 405.52,183.59 430.64,191.25 436.92,193.16 443.20,195.06 449.48,196.96 455.76,198.85 506.00,294.56 631.60,338.61 882.79,420.90" opacity="0.9"/><circle cx="129.21" cy="95.10" r="4" fill="#4A6FA5" opacity="0.95"/><circle cx="129.21" cy="148.95" r="4" fill="#4A6FA5" opacity="0.95"/><circle cx="254.81" cy="136.31" r="4" fill="#4A6FA5" opacity="0.95"/><circle cx="254.81" cy="199.91" r="4" fill="#4A6FA5" opacity="0.95"/><circle cx="380.40" cy="175.87" r="4" fill="#4A6FA5" opacity="0.95"/><circle cx="380.40" cy="248.39" r="4" fill="#4A6FA5" opacity="0.95"/><circle cx="405.52" cy="183.59" r="4" fill="#4A6FA5" opacity="0.95"/><circle cx="430.64" cy="191.25" r="4" fill="#4A6FA5" opacity="0.95"/><circle cx="436.92" cy="193.16" r="4" fill="#4A6FA5" opacity="0.95"/><circle cx="443.20" cy="195.06" r="6" fill="#C9714A" opacity="0.95"/><text x="453.20" y="185.06" font-size="12" font-family="Helvetica, Arial, sans-serif" fill="#3d3a35">linear_lambda_003250 (0.0001)</text><circle cx="449.48" cy="196.96" r="4" fill="#4A6FA5" opacity="0.95"/><circle cx="455.76" cy="198.85" r="4" fill="#4A6FA5" opacity="0.95"/><circle cx="506.00" cy="294.56" r="4" fill="#4A6FA5" opacity="0.95"/><circle cx="631.60" cy="338.61" r="4" fill="#4A6FA5" opacity="0.95"/><circle cx="882.79" cy="420.90" r="4" fill="#4A6FA5" opacity="0.95"/><text x="506.00" y="520" text-anchor="middle" font-size="13" font-family="Helvetica, Arial, sans-serif" fill="#3d3a35">Affine time-weight parameter (linear_lambda)</text><text x="22" y="258.00" transform="rotate(-90 22,258.00)" text-anchor="middle" font-size="13" font-family="Helvetica, Arial, sans-serif" fill="#3d3a35">Mean fairness gap</text></svg>