<svg xmlns="http://www.w3.org/2000/svg" width="960" height="540" viewBox="0 0 960 540"><rect width="100%" height="100%" fill="#fbfaf7"/><text x="84" y="28" font-size="24" font-family="Georgia, serif" fill="#1d1b18">Monte Carlo Fairness Gap Distribution</text><text x="84" y="48" font-size="13" font-family="Helvetica, Arial, sans-serif" fill="#5d554a">Late minus early NAV per deposited dollar across Monte Carlo scenarios.</text><line x1="84" y1="460" x2="928" y2="460" stroke="#3d3a35" stroke-width="1.5"/><line x1="84" y1="56" x2="84" y2="460" stroke="#3d3a35" stroke-width="1.5"/><rect x="84.00" y="438.16" width="102.00" height="21.84" fill="#cb6d51" opacity="0.88"/><rect x="190.00" y="416.32" width="102.00" height="43.68" fill="#cb6d51" opacity="0.88"/><rect x="296.00" y="405.41" width="102.00" height="54.59" fill="#cb6d51" opacity="0.88"/><rect x="402.00" y="56.00" width="102.00" height="404.00" fill="#cb6d51" opacity="0.88"/><rect x="508.00" y="350.81" width="102.00" height="109.19" fill="#cb6d51" opacity="0.88"/><rect x="614.00" y="438.16" width="102.00" height="21.84" fill="#cb6d51" opacity="0.88"/><rect x="720.00" y="438.16" width="102.00" height="21.84" fill="#cb6d51" opacity="0.88"/><rect x="826.00" y="438.16" width="102.00" height="21.84" fill="#cb6d51" opacity="0.88"/><line x1="84.00" y1="460" x2="84.00" y2="466" stroke="#3d3a35" stroke-width="1"/><text x="84.00" y="482" text-anchor="middle" font-size="12" font-family="Helvetica, Arial, sans-serif" fill="#3d3a35">-0.048</text><line x1="475.06" y1="460" x2="475.06" y2="466" stroke="#3d3a35" stroke-width="1"/><text x="475.06" y="482" text-anchor="middle" font-size="12" font-family="Helvetica, Arial, sans-serif" fill="#3d3a35">0.000</text><line x1="928.00" y1="460" x2="928.00" y2="466" stroke="#3d3a35" stroke-width="1"/><text x="928.00" y="482" text-anchor="middle" font-size="12" font-family="Helvetica, Arial, sans-serif" fill="#3d3a35">0.055</text><line x1="78" y1="460.00" x2="84" y2="460.00" stroke="#3d3a35" stroke-width="1"/><text x="74" y="464.00" text-anchor="end" font-size="12" font-family="Helvetica, Arial, sans-serif" fill="#3d3a35">0</text><line x1="78" y1="361.73" x2="84" y2="361.73" stroke="#3d3a35" stroke-width="1"/><text x="74" y="365.73" text-anchor="end" font-size="12" font-family="Helvetica, Arial, sans-serif" fill="#3d3a35">9</text><line x1="78" y1="263.46" x2="84" y2="263.46" stroke="#3d3a35" stroke-width="1"/><text x="74" y="267.46" text-anchor="end" font-size="12" font-family="Helvetica, Arial, sans-serif" fill="#3d3a35">18</text><line x1="78" y1="165.19" x2="84" y2="165.19" stroke="#3d3a35" stroke-width="1"/><text x="74" y="169.19" text-anchor="end" font-size="12" font-family="Helvetica, Arial, sans-serif" fill="#3d3a35">27</text><line x1="78" y1="66.92" x2="84" y2="66.92" stroke="#3d3a35" stroke-width="1"/><text x="74" y="70.92" text-anchor="end" font-size="12" font-family="Helvetica, Arial, sans-serif" fill="#3d3a35">36</text><text x="506.00" y="516" text-anchor="middle" font-size="13" font-family="Helvetica, Arial, sans-serif" fill="#3d3a35">Fairness gap (late minus early NAV / deposit)</text><text x="22" y="258.00" transform="rotate(-90 22,258.00)" text-anchor="middle" font-size="13" font-family="Helvetica, Arial, sans-serif" fill="#3d3a35">Scenario count</text></svg>