<svg xmlns="http://www.w3.org/2000/svg" width="960" height="540" viewBox="0 0 960 540"><rect width="100%" height="100%" fill="#fbfaf7"/><text x="84" y="28" font-size="24" font-family="Georgia, serif" fill="#1d1b18">Deterministic Scenario Fairness Gaps</text><text x="84" y="48" font-size="13" font-family="Helvetica, Arial, sans-serif" fill="#5d554a">Each bar is one named deterministic scenario.</text><line x1="84" y1="258.00" x2="928" y2="258.00" stroke="#3d3a35" stroke-width="1.5"/><line x1="84" y1="56" x2="84" y2="460" stroke="#3d3a35" stroke-width="1.5"/><rect x="84.00" y="234.20" width="37.44" height="23.80" fill="#4e8f7d" opacity="0.88"/><text x="102.72" y="478" text-anchor="end" transform="rotate(-35 102.72,478)" font-size="11" font-family="Helvetica, Arial, sans-serif" fill="#3d3a35">neutral_late_lp</text><text x="102.72" y="228.20" text-anchor="middle" font-size="10" font-family="Helvetica, Arial, sans-serif" fill="#3d3a35">0.013</text><rect x="131.44" y="234.20" width="37.44" height="23.80" fill="#4e8f7d" opacity="0.88"/><text x="150.17" y="478" text-anchor="end" transform="rotate(-35 150.17,478)" font-size="11" font-family="Helvetica, Arial, sans-serif" fill="#3d3a35">neutral_late_lp</text><text x="150.17" y="228.20" text-anchor="middle" font-size="10" font-family="Helvetica, Arial, sans-serif" fill="#3d3a35">0.013</text><rect x="178.89" y="56.00" width="37.44" height="202.00" fill="#4e8f7d" opacity="0.88"/><text x="197.61" y="478" text-anchor="end" transform="rotate(-35 197.61,478)" font-size="11" font-family="Helvetica, Arial, sans-serif" fill="#3d3a35">skewed_late_lp</text><text x="197.61" y="50.00" text-anchor="middle" font-size="10" font-family="Helvetica, Arial, sans-serif" fill="#3d3a35">0.114</text><rect x="226.33" y="56.00" width="37.44" height="202.00" fill="#4e8f7d" opacity="0.88"/><text x="245.06" y="478" text-anchor="end" transform="rotate(-35 245.06,478)" font-size="11" font-family="Helvetica, Arial, sans-serif" fill="#3d3a35">skewed_late_lp</text><text x="245.06" y="50.00" text-anchor="middle" font-size="10" font-family="Helvetica, Arial, sans-serif" fill="#3d3a35">0.114</text><rect x="273.78" y="220.46" width="37.44" height="37.54" fill="#4e8f7d" opacity="0.88"/><text x="292.50" y="478" text-anchor="end" transform="rotate(-35 292.50,478)" font-size="11" font-family="Helvetica, Arial, sans-serif" fill="#3d3a35">long_tail_late_lp</text><text x="292.50" y="214.46" text-anchor="middle" font-size="10" font-family="Helvetica, Arial, sans-serif" fill="#3d3a35">0.021</text><rect x="321.22" y="220.46" width="37.44" height="37.54" fill="#4e8f7d" opacity="0.88"/><text x="339.94" y="478" text-anchor="end" transform="rotate(-35 339.94,478)" font-size="11" font-family="Helvetica, Arial, sans-serif" fill="#3d3a35">long_tail_late_lp</text><text x="339.94" y="214.46" text-anchor="middle" font-size="10" font-family="Helvetica, Arial, sans-serif" fill="#3d3a35">0.021</text><rect x="368.67" y="221.01" width="37.44" height="36.99" fill="#4e8f7d" opacity="0.88"/><text x="387.39" y="478" text-anchor="end" transform="rotate(-35 387.39,478)" font-size="11" font-family="Helvetica, Arial, sans-serif" fill="#3d3a35">early_vs_late_same_delta_b</text><text x="387.39" y="215.01" text-anchor="middle" font-size="10" font-family="Helvetica, Arial, sans-serif" fill="#3d3a35">0.021</text><rect x="416.11" y="221.01" width="37.44" height="36.99" fill="#4e8f7d" opacity="0.88"/><text x="434.83" y="478" text-anchor="end" transform="rotate(-35 434.83,478)" font-size="11" font-family="Helvetica, Arial, sans-serif" fill="#3d3a35">early_vs_late_same_delta_b</text><text x="434.83" y="215.01" text-anchor="middle" font-size="10" font-family="Helvetica, Arial, sans-serif" fill="#3d3a35">0.021</text><rect x="463.56" y="186.98" width="37.44" height="71.02" fill="#4e8f7d" opacity="0.88"/><text x="482.28" y="478" text-anchor="end" transform="rotate(-35 482.28,478)" font-size="11" font-family="Helvetica, Arial, sans-serif" fill="#3d3a35">same_final_claims_different_timing</text><text x="482.28" y="180.98" text-anchor="middle" font-size="10" font-family="Helvetica, Arial, sans-serif" fill="#3d3a35">0.040</text><rect x="511.00" y="186.98" width="37.44" height="71.02" fill="#4e8f7d" opacity="0.88"/><text x="529.72" y="478" text-anchor="end" transform="rotate(-35 529.72,478)" font-size="11" font-family="Helvetica, Arial, sans-serif" fill="#3d3a35">same_final_claims_different_timing</text><text x="529.72" y="180.98" text-anchor="middle" font-size="10" font-family="Helvetica, Arial, sans-serif" fill="#3d3a35">0.040</text><rect x="558.44" y="258.00" width="37.44" height="33.87" fill="#c9714a" opacity="0.88"/><text x="577.17" y="478" text-anchor="end" transform="rotate(-35 577.17,478)" font-size="11" font-family="Helvetica, Arial, sans-serif" fill="#3d3a35">cancellation_refund_path</text><text x="577.17" y="305.87" text-anchor="middle" font-size="10" font-family="Helvetica, Arial, sans-serif" fill="#3d3a35">-0.019</text><rect x="605.89" y="258.00" width="37.44" height="33.87" fill="#c9714a" opacity="0.88"/><text x="624.61" y="478" text-anchor="end" transform="rotate(-35 624.61,478)" font-size="11" font-family="Helvetica, Arial, sans-serif" fill="#3d3a35">cancellation_refund_path</text><text x="624.61" y="305.87" text-anchor="middle" font-size="10" font-family="Helvetica, Arial, sans-serif" fill="#3d3a35">-0.019</text><rect x="653.33" y="243.87" width="37.44" height="14.13" fill="#4e8f7d" opacity="0.88"/><text x="672.06" y="478" text-anchor="end" transform="rotate(-35 672.06,478)" font-size="11" font-family="Helvetica, Arial, sans-serif" fill="#3d3a35">repeated_lp_entries</text><text x="672.06" y="237.87" text-anchor="middle" font-size="10" font-family="Helvetica, Arial, sans-serif" fill="#3d3a35">0.008</text><rect x="700.78" y="243.87" width="37.44" height="14.13" fill="#4e8f7d" opacity="0.88"/><text x="719.50" y="478" text-anchor="end" transform="rotate(-35 719.50,478)" font-size="11" font-family="Helvetica, Arial, sans-serif" fill="#3d3a35">repeated_lp_entries</text><text x="719.50" y="237.87" text-anchor="middle" font-size="10" font-family="Helvetica, Arial, sans-serif" fill="#3d3a35">0.008</text><rect x="748.22" y="257.85" width="37.44" height="0.15" fill="#4e8f7d" opacity="0.88"/><text x="766.94" y="478" text-anchor="end" transform="rotate(-35 766.94,478)" font-size="11" font-family="Helvetica, Arial, sans-serif" fill="#3d3a35">zero_flow_nav_invariance</text><text x="766.94" y="251.85" text-anchor="middle" font-size="10" font-family="Helvetica, Arial, sans-serif" fill="#3d3a35">0.000</text><rect x="795.67" y="257.85" width="37.44" height="0.15" fill="#4e8f7d" opacity="0.88"/><text x="814.39" y="478" text-anchor="end" transform="rotate(-35 814.39,478)" font-size="11" font-family="Helvetica, Arial, sans-serif" fill="#3d3a35">zero_flow_nav_invariance</text><text x="814.39" y="251.85" text-anchor="middle" font-size="10" font-family="Helvetica, Arial, sans-serif" fill="#3d3a35">0.000</text><rect x="843.11" y="224.49" width="37.44" height="33.51" fill="#4e8f7d" opacity="0.88"/><text x="861.83" y="478" text-anchor="end" transform="rotate(-35 861.83,478)" font-size="11" font-family="Helvetica, Arial, sans-serif" fill="#3d3a35">same_block_trade_reordering</text><text x="861.83" y="218.49" text-anchor="middle" font-size="10" font-family="Helvetica, Arial, sans-serif" fill="#3d3a35">0.019</text><rect x="890.56" y="224.49" width="37.44" height="33.51" fill="#4e8f7d" opacity="0.88"/><text x="909.28" y="478" text-anchor="end" transform="rotate(-35 909.28,478)" font-size="11" font-family="Helvetica, Arial, sans-serif" fill="#3d3a35">same_block_trade_reordering</text><text x="909.28" y="218.49" text-anchor="middle" font-size="10" font-family="Helvetica, Arial, sans-serif" fill="#3d3a35">0.019</text><line x1="78" y1="460.00" x2="84" y2="460.00" stroke="#3d3a35" stroke-width="1"/><text x="74" y="464.00" text-anchor="end" font-size="12" font-family="Helvetica, Arial, sans-serif" fill="#3d3a35">-0.114</text><line x1="78" y1="258.00" x2="84" y2="258.00" stroke="#3d3a35" stroke-width="1"/><text x="74" y="262.00" text-anchor="end" font-size="12" font-family="Helvetica, Arial, sans-serif" fill="#3d3a35">0.000</text><line x1="78" y1="56.00" x2="84" y2="56.00" stroke="#3d3a35" stroke-width="1"/><text x="74" y="60.00" text-anchor="end" font-size="12" font-family="Helvetica, Arial, sans-serif" fill="#3d3a35">0.114</text><text x="506.00" y="520" text-anchor="middle" font-size="13" font-family="Helvetica, Arial, sans-serif" fill="#3d3a35">Scenario</text><text x="22" y="258.00" transform="rotate(-90 22,258.00)" text-anchor="middle" font-size="13" font-family="Helvetica, Arial, sans-serif" fill="#3d3a35">Fairness gap (NAV / deposit)</text></svg>