<svg xmlns="http://www.w3.org/2000/svg" width="960" height="540" viewBox="0 0 960 540"><rect width="100%" height="100%" fill="#fbfaf7"/><text x="84" y="28" font-size="24" font-family="Georgia, serif" fill="#1d1b18">Monte Carlo Fairness Gap Distribution</text><text x="84" y="48" font-size="13" font-family="Helvetica, Arial, sans-serif" fill="#5d554a">Late minus early NAV per deposited dollar across Monte Carlo scenarios.</text><line x1="84" y1="460" x2="928" y2="460" stroke="#3d3a35" stroke-width="1.5"/><line x1="84" y1="56" x2="84" y2="460" stroke="#3d3a35" stroke-width="1.5"/><rect x="84.00" y="451.31" width="38.40" height="8.69" fill="#cb6d51" opacity="0.88"/><rect x="126.40" y="460.00" width="38.40" height="0.00" fill="#cb6d51" opacity="0.88"/><rect x="168.80" y="455.66" width="38.40" height="4.34" fill="#cb6d51" opacity="0.88"/><rect x="211.20" y="438.28" width="38.40" height="21.72" fill="#cb6d51" opacity="0.88"/><rect x="253.60" y="455.66" width="38.40" height="4.34" fill="#cb6d51" opacity="0.88"/><rect x="296.00" y="451.31" width="38.40" height="8.69" fill="#cb6d51" opacity="0.88"/><rect x="338.40" y="433.94" width="38.40" height="26.06" fill="#cb6d51" opacity="0.88"/><rect x="380.80" y="416.56" width="38.40" height="43.44" fill="#cb6d51" opacity="0.88"/><rect x="423.20" y="364.43" width="38.40" height="95.57" fill="#cb6d51" opacity="0.88"/><rect x="465.60" y="216.73" width="38.40" height="243.27" fill="#cb6d51" opacity="0.88"/><rect x="508.00" y="56.00" width="38.40" height="404.00" fill="#cb6d51" opacity="0.88"/><rect x="550.40" y="360.09" width="38.40" height="99.91" fill="#cb6d51" opacity="0.88"/><rect x="592.80" y="407.87" width="38.40" height="52.13" fill="#cb6d51" opacity="0.88"/><rect x="635.20" y="442.62" width="38.40" height="17.38" fill="#cb6d51" opacity="0.88"/><rect x="677.60" y="420.90" width="38.40" height="39.10" fill="#cb6d51" opacity="0.88"/><rect x="720.00" y="446.97" width="38.40" height="13.03" fill="#cb6d51" opacity="0.88"/><rect x="762.40" y="438.28" width="38.40" height="21.72" fill="#cb6d51" opacity="0.88"/><rect x="804.80" y="455.66" width="38.40" height="4.34" fill="#cb6d51" opacity="0.88"/><rect x="847.20" y="460.00" width="38.40" height="0.00" fill="#cb6d51" opacity="0.88"/><rect x="889.60" y="455.66" width="38.40" height="4.34" fill="#cb6d51" opacity="0.88"/><line x1="84.00" y1="460" x2="84.00" y2="466" stroke="#3d3a35" stroke-width="1"/><text x="84.00" y="482" text-anchor="middle" font-size="12" font-family="Helvetica, Arial, sans-serif" fill="#3d3a35">-0.084</text><line x1="528.42" y1="460" x2="528.42" y2="466" stroke="#3d3a35" stroke-width="1"/><text x="528.42" y="482" text-anchor="middle" font-size="12" font-family="Helvetica, Arial, sans-serif" fill="#3d3a35">0.000</text><line x1="928.00" y1="460" x2="928.00" y2="466" stroke="#3d3a35" stroke-width="1"/><text x="928.00" y="482" text-anchor="middle" font-size="12" font-family="Helvetica, Arial, sans-serif" fill="#3d3a35">0.076</text><line x1="78" y1="460.00" x2="84" y2="460.00" stroke="#3d3a35" stroke-width="1"/><text x="74" y="464.00" text-anchor="end" font-size="12" font-family="Helvetica, Arial, sans-serif" fill="#3d3a35">0</text><line x1="78" y1="360.09" x2="84" y2="360.09" stroke="#3d3a35" stroke-width="1"/><text x="74" y="364.09" text-anchor="end" font-size="12" font-family="Helvetica, Arial, sans-serif" fill="#3d3a35">46</text><line x1="78" y1="260.17" x2="84" y2="260.17" stroke="#3d3a35" stroke-width="1"/><text x="74" y="264.17" text-anchor="end" font-size="12" font-family="Helvetica, Arial, sans-serif" fill="#3d3a35">92</text><line x1="78" y1="160.26" x2="84" y2="160.26" stroke="#3d3a35" stroke-width="1"/><text x="74" y="164.26" text-anchor="end" font-size="12" font-family="Helvetica, Arial, sans-serif" fill="#3d3a35">138</text><line x1="78" y1="60.34" x2="84" y2="60.34" stroke="#3d3a35" stroke-width="1"/><text x="74" y="64.34" text-anchor="end" font-size="12" font-family="Helvetica, Arial, sans-serif" fill="#3d3a35">184</text><text x="506.00" y="516" text-anchor="middle" font-size="13" font-family="Helvetica, Arial, sans-serif" fill="#3d3a35">Fairness gap (late minus early NAV / deposit)</text><text x="22" y="258.00" transform="rotate(-90 22,258.00)" text-anchor="middle" font-size="13" font-family="Helvetica, Arial, sans-serif" fill="#3d3a35">Scenario count</text></svg>